<svg width="60" height="60" viewBox="0 0 60 60" fill="none" xmlns="http://www.w3.org/2000/svg">
<g id="Ninja Coin AVA">
<rect width="60" height="60" rx="30" fill="black"/>
<g id="Group 1321316801">
<g id="Group 1321316400">
<path id="Vector" d="M37.2271 45.9062C37.7424 46.046 37.6746 46.7806 37.142 46.8251C32.3999 47.2185 23.2468 46.8098 19.2848 38.67C18.8325 40.5832 19.2155 42.5685 19.7292 44.1037C19.8978 44.6077 19.2123 44.9504 18.8845 44.5278C16.0494 40.8751 11.8557 33.3347 16.8232 24.9137C14.8217 25.5115 13.1985 26.7501 12.0827 27.8303C11.7044 28.1961 11.0804 27.795 11.2931 27.3186C13.0346 23.4201 17.6143 16.2761 27.8155 16.1931C26.6004 15.0883 25.1742 14.4352 23.9024 14.0479C23.3744 13.8881 23.4768 13.1352 24.03 13.1275C28.3418 13.0645 35.6905 14.1601 41.2678 21.2288C41.7138 19.3433 41.3482 17.3871 40.8439 15.8597C40.6768 15.3526 41.3655 15.0099 41.6902 15.4371C44.4182 19.0513 48.2808 26.3736 43.3702 34.6962C45.638 34.02 47.537 32.6125 48.7457 31.5337C49.1224 31.1972 49.7055 31.5844 49.5211 32.0485C48.024 35.798 43.5514 43.6473 32.3779 43.4168C33.8451 44.7491 35.7015 45.4928 37.2271 45.9062ZM30.2109 25.4055C27.6011 25.4055 25.483 27.4708 25.483 30.0155C25.483 32.5602 27.6011 34.6255 30.2109 34.6255C32.8207 34.6255 34.9388 32.5602 34.9388 30.0155C34.9388 27.4708 32.8207 25.4055 30.2109 25.4055Z" fill="white"/>
</g>
</g>
</g>
</svg>
